# xmcd
# Track frame offsets:
# 150
# 9577
# 23346
# 35817
# 44861
# 56932
# 66136
# 79228
# 89245
# 98700
#
# Disc length: 1459 seconds
# Revision: 0
# Processed by: cddbd v1.4PL0 Copyright (c) Steve Scherf et al.
# Submitted via: VisiTrax 2.9.5.180 - For more info visit www.synapsa.com
#
DISCID=8905b10a
DTITLE=Wenche Hartmann - A tribute to Patsy Cline with love Wenche
DYEAR=2001
DGENRE=
TTITLE0=Blue moon of Kentuck
TTITLE1=She's got you
TTITLE2=Sweet dreams
TTITLE3=Walking after midnight
TTITLE4=Crazy
TTITLE5=Foolin' around
TTITLE6=I fall to pieces
TTITLE7=San Antonio Rose
TTITLE8=Back in baby's arms
TTITLE9=Half as much
EXTD=
EXTT0=
EXTT1=
EXTT2=
EXTT3=
EXTT4=
EXTT5=
EXTT6=
EXTT7=
EXTT8=
EXTT9=
PLAYORDER=
